<svg width="558" height="27" viewBox="0 0 558 27" fill="none" xmlns="http://www.w3.org/2000/svg">
<path d="M11.052 7.454V20H9.414V14.312H3.024V20H1.386V7.454H3.024V12.962H9.414V7.454H11.052ZM18.1509 20.162C17.2269 20.162 16.3869 19.952 15.6309 19.532C14.8869 19.112 14.2989 18.518 13.8669 17.75C13.4469 16.97 13.2369 16.07 13.2369 15.05C13.2369 14.042 13.4529 13.154 13.8849 12.386C14.3289 11.606 14.9289 11.012 15.6849 10.604C16.4409 10.184 17.2869 9.974 18.2229 9.974C19.1589 9.974 20.0049 10.184 20.7609 10.604C21.5169 11.012 22.1109 11.6 22.5429 12.368C22.9869 13.136 23.2089 14.03 23.2089 15.05C23.2089 16.07 22.9809 16.97 22.5249 17.75C22.0809 18.518 21.4749 19.112 20.7069 19.532C19.9389 19.952 19.0869 20.162 18.1509 20.162ZM18.1509 18.722C18.7389 18.722 19.2909 18.584 19.8069 18.308C20.3229 18.032 20.7369 17.618 21.0489 17.066C21.3729 16.514 21.5349 15.842 21.5349 15.05C21.5349 14.258 21.3789 13.586 21.0669 13.034C20.7549 12.482 20.3469 12.074 19.8429 11.81C19.3389 11.534 18.7929 11.396 18.2049 11.396C17.6049 11.396 17.0529 11.534 16.5489 11.81C16.0569 12.074 15.6609 12.482 15.3609 13.034C15.0609 13.586 14.9109 14.258 14.9109 15.05C14.9109 15.854 15.0549 16.532 15.3429 17.084C15.6429 17.636 16.0389 18.05 16.5309 18.326C17.0229 18.59 17.5629 18.722 18.1509 18.722ZM37.2246 9.956C37.9926 9.956 38.6766 10.118 39.2766 10.442C39.8766 10.754 40.3506 11.228 40.6986 11.864C41.0466 12.5 41.2206 13.274 41.2206 14.186V20H39.6006V14.42C39.6006 13.436 39.3546 12.686 38.8626 12.17C38.3826 11.642 37.7286 11.378 36.9006 11.378C36.0486 11.378 35.3706 11.654 34.8666 12.206C34.3626 12.746 34.1106 13.532 34.1106 14.564V20H32.4906V14.42C32.4906 13.436 32.2446 12.686 31.7526 12.17C31.2726 11.642 30.6186 11.378 29.7906 11.378C28.9386 11.378 28.2606 11.654 27.7566 12.206C27.2526 12.746 27.0006 13.532 27.0006 14.564V20H25.3626V10.136H27.0006V11.558C27.3246 11.042 27.7566 10.646 28.2966 10.37C28.8486 10.094 29.4546 9.956 30.1146 9.956C30.9426 9.956 31.6746 10.142 32.3106 10.514C32.9466 10.886 33.4206 11.432 33.7326 12.152C34.0086 11.456 34.4646 10.916 35.1006 10.532C35.7366 10.148 36.4446 9.956 37.2246 9.956ZM52.9075 14.69C52.9075 15.002 52.8895 15.332 52.8535 15.68H44.9695C45.0295 16.652 45.3595 17.414 45.9595 17.966C46.5715 18.506 47.3095 18.776 48.1735 18.776C48.8815 18.776 49.4695 18.614 49.9375 18.29C50.4175 17.954 50.7535 17.51 50.9455 16.958H52.7095C52.4455 17.906 51.9175 18.68 51.1255 19.28C50.3335 19.868 49.3495 20.162 48.1735 20.162C47.2375 20.162 46.3975 19.952 45.6535 19.532C44.9215 19.112 44.3455 18.518 43.9255 17.75C43.5055 16.97 43.2955 16.07 43.2955 15.05C43.2955 14.03 43.4995 13.136 43.9075 12.368C44.3155 11.6 44.8855 11.012 45.6175 10.604C46.3615 10.184 47.2135 9.974 48.1735 9.974C49.1095 9.974 49.9375 10.178 50.6575 10.586C51.3775 10.994 51.9295 11.558 52.3135 12.278C52.7095 12.986 52.9075 13.79 52.9075 14.69ZM51.2155 14.348C51.2155 13.724 51.0775 13.19 50.8015 12.746C50.5255 12.29 50.1475 11.948 49.6675 11.72C49.1995 11.48 48.6775 11.36 48.1015 11.36C47.2735 11.36 46.5655 11.624 45.9775 12.152C45.4015 12.68 45.0715 13.412 44.9875 14.348H51.2155Z" fill="#264065"/>
<path d="M118.802 17.21H113.33L112.322 20H110.594L115.13 7.526H117.02L121.538 20H119.81L118.802 17.21ZM118.334 15.878L116.066 9.542L113.798 15.878H118.334ZM125.153 11.972C125.489 11.384 125.981 10.904 126.629 10.532C127.277 10.16 128.015 9.974 128.843 9.974C129.731 9.974 130.529 10.184 131.237 10.604C131.945 11.024 132.503 11.618 132.911 12.386C133.319 13.142 133.523 14.024 133.523 15.032C133.523 16.028 133.319 16.916 132.911 17.696C132.503 18.476 131.939 19.082 131.219 19.514C130.511 19.946 129.719 20.162 128.843 20.162C127.991 20.162 127.241 19.976 126.593 19.604C125.957 19.232 125.477 18.758 125.153 18.182V20H123.515V6.68H125.153V11.972ZM131.849 15.032C131.849 14.288 131.699 13.64 131.399 13.088C131.099 12.536 130.691 12.116 130.175 11.828C129.671 11.54 129.113 11.396 128.501 11.396C127.901 11.396 127.343 11.546 126.827 11.846C126.323 12.134 125.915 12.56 125.603 13.124C125.303 13.676 125.153 14.318 125.153 15.05C125.153 15.794 125.303 16.448 125.603 17.012C125.915 17.564 126.323 17.99 126.827 18.29C127.343 18.578 127.901 18.722 128.501 18.722C129.113 18.722 129.671 18.578 130.175 18.29C130.691 17.99 131.099 17.564 131.399 17.012C131.699 16.448 131.849 15.788 131.849 15.032ZM139.981 20.162C139.057 20.162 138.217 19.952 137.461 19.532C136.717 19.112 136.129 18.518 135.697 17.75C135.277 16.97 135.067 16.07 135.067 15.05C135.067 14.042 135.283 13.154 135.715 12.386C136.159 11.606 136.759 11.012 137.515 10.604C138.271 10.184 139.117 9.974 140.053 9.974C140.989 9.974 141.835 10.184 142.591 10.604C143.347 11.012 143.941 11.6 144.373 12.368C144.817 13.136 145.039 14.03 145.039 15.05C145.039 16.07 144.811 16.97 144.355 17.75C143.911 18.518 143.305 19.112 142.537 19.532C141.769 19.952 140.917 20.162 139.981 20.162ZM139.981 18.722C140.569 18.722 141.121 18.584 141.637 18.308C142.153 18.032 142.567 17.618 142.879 17.066C143.203 16.514 143.365 15.842 143.365 15.05C143.365 14.258 143.209 13.586 142.897 13.034C142.585 12.482 142.177 12.074 141.673 11.81C141.169 11.534 140.623 11.396 140.035 11.396C139.435 11.396 138.883 11.534 138.379 11.81C137.887 12.074 137.491 12.482 137.191 13.034C136.891 13.586 136.741 14.258 136.741 15.05C136.741 15.854 136.885 16.532 137.173 17.084C137.473 17.636 137.869 18.05 138.361 18.326C138.853 18.59 139.393 18.722 139.981 18.722ZM155.941 10.136V20H154.303V18.542C153.991 19.046 153.553 19.442 152.989 19.73C152.437 20.006 151.825 20.144 151.153 20.144C150.385 20.144 149.695 19.988 149.083 19.676C148.471 19.352 147.985 18.872 147.625 18.236C147.277 17.6 147.103 16.826 147.103 15.914V10.136H148.723V15.698C148.723 16.67 148.969 17.42 149.461 17.948C149.953 18.464 150.625 18.722 151.477 18.722C152.353 18.722 153.043 18.452 153.547 17.912C154.051 17.372 154.303 16.586 154.303 15.554V10.136H155.941ZM160.704 11.486V17.3C160.704 17.78 160.806 18.122 161.01 18.326C161.214 18.518 161.568 18.614 162.072 18.614H163.278V20H161.802C160.89 20 160.206 19.79 159.75 19.37C159.294 18.95 159.066 18.26 159.066 17.3V11.486H157.788V10.136H159.066V7.652H160.704V10.136H163.278V11.486H160.704Z" fill="#264065"/>
<path d="M225.364 20.126C224.536 20.126 223.792 19.982 223.132 19.694C222.484 19.394 221.974 18.986 221.602 18.47C221.23 17.942 221.038 17.336 221.026 16.652H222.772C222.832 17.24 223.072 17.738 223.492 18.146C223.924 18.542 224.548 18.74 225.364 18.74C226.144 18.74 226.756 18.548 227.2 18.164C227.656 17.768 227.884 17.264 227.884 16.652C227.884 16.172 227.752 15.782 227.488 15.482C227.224 15.182 226.894 14.954 226.498 14.798C226.102 14.642 225.568 14.474 224.896 14.294C224.068 14.078 223.402 13.862 222.898 13.646C222.406 13.43 221.98 13.094 221.62 12.638C221.272 12.17 221.098 11.546 221.098 10.766C221.098 10.082 221.272 9.476 221.62 8.948C221.968 8.42 222.454 8.012 223.078 7.724C223.714 7.436 224.44 7.292 225.256 7.292C226.432 7.292 227.392 7.586 228.136 8.174C228.892 8.762 229.318 9.542 229.414 10.514H227.614C227.554 10.034 227.302 9.614 226.858 9.254C226.414 8.882 225.826 8.696 225.094 8.696C224.41 8.696 223.852 8.876 223.42 9.236C222.988 9.584 222.772 10.076 222.772 10.712C222.772 11.168 222.898 11.54 223.15 11.828C223.414 12.116 223.732 12.338 224.104 12.494C224.488 12.638 225.022 12.806 225.706 12.998C226.534 13.226 227.2 13.454 227.704 13.682C228.208 13.898 228.64 14.24 229 14.708C229.36 15.164 229.54 15.788 229.54 16.58C229.54 17.192 229.378 17.768 229.054 18.308C228.73 18.848 228.25 19.286 227.614 19.622C226.978 19.958 226.228 20.126 225.364 20.126ZM240.95 14.69C240.95 15.002 240.932 15.332 240.896 15.68H233.012C233.072 16.652 233.402 17.414 234.002 17.966C234.614 18.506 235.352 18.776 236.216 18.776C236.924 18.776 237.512 18.614 237.98 18.29C238.46 17.954 238.796 17.51 238.988 16.958H240.752C240.488 17.906 239.96 18.68 239.168 19.28C238.376 19.868 237.392 20.162 236.216 20.162C235.28 20.162 234.44 19.952 233.696 19.532C232.964 19.112 232.388 18.518 231.968 17.75C231.548 16.97 231.338 16.07 231.338 15.05C231.338 14.03 231.542 13.136 231.95 12.368C232.358 11.6 232.928 11.012 233.66 10.604C234.404 10.184 235.256 9.974 236.216 9.974C237.152 9.974 237.98 10.178 238.7 10.586C239.42 10.994 239.972 11.558 240.356 12.278C240.752 12.986 240.95 13.79 240.95 14.69ZM239.258 14.348C239.258 13.724 239.12 13.19 238.844 12.746C238.568 12.29 238.19 11.948 237.71 11.72C237.242 11.48 236.72 11.36 236.144 11.36C235.316 11.36 234.608 11.624 234.02 12.152C233.444 12.68 233.114 13.412 233.03 14.348H239.258ZM244.751 11.738C245.039 11.174 245.447 10.736 245.975 10.424C246.515 10.112 247.169 9.956 247.937 9.956V11.648H247.505C245.669 11.648 244.751 12.644 244.751 14.636V20H243.113V10.136H244.751V11.738ZM253.499 18.488L256.559 10.136H258.305L254.435 20H252.527L248.657 10.136H250.421L253.499 18.488ZM260.763 8.534C260.451 8.534 260.187 8.426 259.971 8.21C259.755 7.994 259.647 7.73 259.647 7.418C259.647 7.106 259.755 6.842 259.971 6.626C260.187 6.41 260.451 6.302 260.763 6.302C261.063 6.302 261.315 6.41 261.519 6.626C261.735 6.842 261.843 7.106 261.843 7.418C261.843 7.73 261.735 7.994 261.519 8.21C261.315 8.426 261.063 8.534 260.763 8.534ZM261.555 10.136V20H259.917V10.136H261.555ZM263.735 15.05C263.735 14.03 263.939 13.142 264.347 12.386C264.755 11.618 265.319 11.024 266.039 10.604C266.771 10.184 267.605 9.974 268.541 9.974C269.753 9.974 270.749 10.268 271.529 10.856C272.321 11.444 272.843 12.26 273.095 13.304H271.331C271.163 12.704 270.833 12.23 270.341 11.882C269.861 11.534 269.261 11.36 268.541 11.36C267.605 11.36 266.849 11.684 266.273 12.332C265.697 12.968 265.409 13.874 265.409 15.05C265.409 16.238 265.697 17.156 266.273 17.804C266.849 18.452 267.605 18.776 268.541 18.776C269.261 18.776 269.861 18.608 270.341 18.272C270.821 17.936 271.151 17.456 271.331 16.832H273.095C272.831 17.84 272.303 18.65 271.511 19.262C270.719 19.862 269.729 20.162 268.541 20.162C267.605 20.162 266.771 19.952 266.039 19.532C265.319 19.112 264.755 18.518 264.347 17.75C263.939 16.982 263.735 16.082 263.735 15.05ZM284.281 14.69C284.281 15.002 284.263 15.332 284.227 15.68H276.343C276.403 16.652 276.733 17.414 277.333 17.966C277.945 18.506 278.683 18.776 279.547 18.776C280.255 18.776 280.843 18.614 281.311 18.29C281.791 17.954 282.127 17.51 282.319 16.958H284.083C283.819 17.906 283.291 18.68 282.499 19.28C281.707 19.868 280.723 20.162 279.547 20.162C278.611 20.162 277.771 19.952 277.027 19.532C276.295 19.112 275.719 18.518 275.299 17.75C274.879 16.97 274.669 16.07 274.669 15.05C274.669 14.03 274.873 13.136 275.281 12.368C275.689 11.6 276.259 11.012 276.991 10.604C277.735 10.184 278.587 9.974 279.547 9.974C280.483 9.974 281.311 10.178 282.031 10.586C282.751 10.994 283.303 11.558 283.687 12.278C284.083 12.986 284.281 13.79 284.281 14.69ZM282.589 14.348C282.589 13.724 282.451 13.19 282.175 12.746C281.899 12.29 281.521 11.948 281.041 11.72C280.573 11.48 280.051 11.36 279.475 11.36C278.647 11.36 277.939 11.624 277.351 12.152C276.775 12.68 276.445 13.412 276.361 14.348H282.589ZM289.935 20.162C289.179 20.162 288.501 20.036 287.901 19.784C287.301 19.52 286.827 19.16 286.479 18.704C286.131 18.236 285.939 17.702 285.903 17.102H287.595C287.643 17.594 287.871 17.996 288.279 18.308C288.699 18.62 289.245 18.776 289.917 18.776C290.541 18.776 291.033 18.638 291.393 18.362C291.753 18.086 291.933 17.738 291.933 17.318C291.933 16.886 291.741 16.568 291.357 16.364C290.973 16.148 290.379 15.938 289.575 15.734C288.843 15.542 288.243 15.35 287.775 15.158C287.319 14.954 286.923 14.66 286.587 14.276C286.263 13.88 286.101 13.364 286.101 12.728C286.101 12.224 286.251 11.762 286.551 11.342C286.851 10.922 287.277 10.592 287.829 10.352C288.381 10.1 289.011 9.974 289.719 9.974C290.811 9.974 291.693 10.25 292.365 10.802C293.037 11.354 293.397 12.11 293.445 13.07H291.807C291.771 12.554 291.561 12.14 291.177 11.828C290.805 11.516 290.301 11.36 289.665 11.36C289.077 11.36 288.609 11.486 288.261 11.738C287.913 11.99 287.739 12.32 287.739 12.728C287.739 13.052 287.841 13.322 288.045 13.538C288.261 13.742 288.525 13.91 288.837 14.042C289.161 14.162 289.605 14.3 290.169 14.456C290.877 14.648 291.453 14.84 291.897 15.032C292.341 15.212 292.719 15.488 293.031 15.86C293.355 16.232 293.523 16.718 293.535 17.318C293.535 17.858 293.385 18.344 293.085 18.776C292.785 19.208 292.359 19.55 291.807 19.802C291.267 20.042 290.643 20.162 289.935 20.162Z" fill="#264065"/>
<path d="M359.478 7.454V8.786H354.024V13.016H358.452V14.348H354.024V20H352.386V7.454H359.478ZM360.844 15.032C360.844 14.024 361.048 13.142 361.456 12.386C361.864 11.618 362.422 11.024 363.13 10.604C363.85 10.184 364.648 9.974 365.524 9.974C366.388 9.974 367.138 10.16 367.774 10.532C368.41 10.904 368.884 11.372 369.196 11.936V10.136H370.852V20H369.196V18.164C368.872 18.74 368.386 19.22 367.738 19.604C367.102 19.976 366.358 20.162 365.506 20.162C364.63 20.162 363.838 19.946 363.13 19.514C362.422 19.082 361.864 18.476 361.456 17.696C361.048 16.916 360.844 16.028 360.844 15.032ZM369.196 15.05C369.196 14.306 369.046 13.658 368.746 13.106C368.446 12.554 368.038 12.134 367.522 11.846C367.018 11.546 366.46 11.396 365.848 11.396C365.236 11.396 364.678 11.54 364.174 11.828C363.67 12.116 363.268 12.536 362.968 13.088C362.668 13.64 362.518 14.288 362.518 15.032C362.518 15.788 362.668 16.448 362.968 17.012C363.268 17.564 363.67 17.99 364.174 18.29C364.678 18.578 365.236 18.722 365.848 18.722C366.46 18.722 367.018 18.578 367.522 18.29C368.038 17.99 368.446 17.564 368.746 17.012C369.046 16.448 369.196 15.794 369.196 15.05ZM373.008 15.05C373.008 14.03 373.212 13.142 373.62 12.386C374.028 11.618 374.592 11.024 375.312 10.604C376.044 10.184 376.878 9.974 377.814 9.974C379.026 9.974 380.022 10.268 380.802 10.856C381.594 11.444 382.116 12.26 382.368 13.304H380.604C380.436 12.704 380.106 12.23 379.614 11.882C379.134 11.534 378.534 11.36 377.814 11.36C376.878 11.36 376.122 11.684 375.546 12.332C374.97 12.968 374.682 13.874 374.682 15.05C374.682 16.238 374.97 17.156 375.546 17.804C376.122 18.452 376.878 18.776 377.814 18.776C378.534 18.776 379.134 18.608 379.614 18.272C380.094 17.936 380.424 17.456 380.604 16.832H382.368C382.104 17.84 381.576 18.65 380.784 19.262C379.992 19.862 379.002 20.162 377.814 20.162C376.878 20.162 376.044 19.952 375.312 19.532C374.592 19.112 374.028 18.518 373.62 17.75C373.212 16.982 373.008 16.082 373.008 15.05ZM385.4 8.534C385.088 8.534 384.824 8.426 384.608 8.21C384.392 7.994 384.284 7.73 384.284 7.418C384.284 7.106 384.392 6.842 384.608 6.626C384.824 6.41 385.088 6.302 385.4 6.302C385.7 6.302 385.952 6.41 386.156 6.626C386.372 6.842 386.48 7.106 386.48 7.418C386.48 7.73 386.372 7.994 386.156 8.21C385.952 8.426 385.7 8.534 385.4 8.534ZM386.192 10.136V20H384.554V10.136H386.192ZM390.622 6.68V20H388.984V6.68H390.622ZM394.259 8.534C393.947 8.534 393.683 8.426 393.467 8.21C393.251 7.994 393.143 7.73 393.143 7.418C393.143 7.106 393.251 6.842 393.467 6.626C393.683 6.41 393.947 6.302 394.259 6.302C394.559 6.302 394.811 6.41 395.015 6.626C395.231 6.842 395.339 7.106 395.339 7.418C395.339 7.73 395.231 7.994 395.015 8.21C394.811 8.426 394.559 8.534 394.259 8.534ZM395.051 10.136V20H393.413V10.136H395.051ZM399.841 11.486V17.3C399.841 17.78 399.943 18.122 400.147 18.326C400.351 18.518 400.705 18.614 401.209 18.614H402.415V20H400.939C400.027 20 399.343 19.79 398.887 19.37C398.431 18.95 398.203 18.26 398.203 17.3V11.486H396.925V10.136H398.203V7.652H399.841V10.136H402.415V11.486H399.841ZM405.246 8.534C404.934 8.534 404.67 8.426 404.454 8.21C404.238 7.994 404.13 7.73 404.13 7.418C404.13 7.106 404.238 6.842 404.454 6.626C404.67 6.41 404.934 6.302 405.246 6.302C405.546 6.302 405.798 6.41 406.002 6.626C406.218 6.842 406.326 7.106 406.326 7.418C406.326 7.73 406.218 7.994 406.002 8.21C405.798 8.426 405.546 8.534 405.246 8.534ZM406.038 10.136V20H404.4V10.136H406.038ZM417.829 14.69C417.829 15.002 417.811 15.332 417.775 15.68H409.891C409.951 16.652 410.281 17.414 410.881 17.966C411.493 18.506 412.231 18.776 413.095 18.776C413.803 18.776 414.391 18.614 414.859 18.29C415.339 17.954 415.675 17.51 415.867 16.958H417.631C417.367 17.906 416.839 18.68 416.047 19.28C415.255 19.868 414.271 20.162 413.095 20.162C412.159 20.162 411.319 19.952 410.575 19.532C409.843 19.112 409.267 18.518 408.847 17.75C408.427 16.97 408.217 16.07 408.217 15.05C408.217 14.03 408.421 13.136 408.829 12.368C409.237 11.6 409.807 11.012 410.539 10.604C411.283 10.184 412.135 9.974 413.095 9.974C414.031 9.974 414.859 10.178 415.579 10.586C416.299 10.994 416.851 11.558 417.235 12.278C417.631 12.986 417.829 13.79 417.829 14.69ZM416.137 14.348C416.137 13.724 415.999 13.19 415.723 12.746C415.447 12.29 415.069 11.948 414.589 11.72C414.121 11.48 413.599 11.36 413.023 11.36C412.195 11.36 411.487 11.624 410.899 12.152C410.323 12.68 409.993 13.412 409.909 14.348H416.137ZM423.483 20.162C422.727 20.162 422.049 20.036 421.449 19.784C420.849 19.52 420.375 19.16 420.027 18.704C419.679 18.236 419.487 17.702 419.451 17.102H421.143C421.191 17.594 421.419 17.996 421.827 18.308C422.247 18.62 422.793 18.776 423.465 18.776C424.089 18.776 424.581 18.638 424.941 18.362C425.301 18.086 425.481 17.738 425.481 17.318C425.481 16.886 425.289 16.568 424.905 16.364C424.521 16.148 423.927 15.938 423.123 15.734C422.391 15.542 421.791 15.35 421.323 15.158C420.867 14.954 420.471 14.66 420.135 14.276C419.811 13.88 419.649 13.364 419.649 12.728C419.649 12.224 419.799 11.762 420.099 11.342C420.399 10.922 420.825 10.592 421.377 10.352C421.929 10.1 422.559 9.974 423.267 9.974C424.359 9.974 425.241 10.25 425.913 10.802C426.585 11.354 426.945 12.11 426.993 13.07H425.355C425.319 12.554 425.109 12.14 424.725 11.828C424.353 11.516 423.849 11.36 423.213 11.36C422.625 11.36 422.157 11.486 421.809 11.738C421.461 11.99 421.287 12.32 421.287 12.728C421.287 13.052 421.389 13.322 421.593 13.538C421.809 13.742 422.073 13.91 422.385 14.042C422.709 14.162 423.153 14.3 423.717 14.456C424.425 14.648 425.001 14.84 425.445 15.032C425.889 15.212 426.267 15.488 426.579 15.86C426.903 16.232 427.071 16.718 427.083 17.318C427.083 17.858 426.933 18.344 426.633 18.776C426.333 19.208 425.907 19.55 425.355 19.802C424.815 20.042 424.191 20.162 423.483 20.162Z" fill="#264065"/>
<path d="M497.348 6.31H498.554V19H497.204L497.222 9.172L493.1 16.984H492.056L487.916 9.244L487.934 19H486.566V6.31H487.79L492.596 15.508L497.348 6.31ZM505.121 19.126C504.293 19.126 503.561 18.94 502.925 18.568C502.301 18.196 501.815 17.668 501.467 16.984C501.131 16.288 500.963 15.484 500.963 14.572C500.963 13.66 501.131 12.862 501.467 12.178C501.815 11.482 502.301 10.948 502.925 10.576C503.561 10.204 504.293 10.018 505.121 10.018C505.949 10.018 506.681 10.204 507.317 10.576C507.953 10.948 508.439 11.482 508.775 12.178C509.123 12.862 509.297 13.66 509.297 14.572C509.297 15.484 509.123 16.288 508.775 16.984C508.439 17.668 507.953 18.196 507.317 18.568C506.681 18.94 505.949 19.126 505.121 19.126ZM505.121 17.92C505.985 17.92 506.645 17.638 507.101 17.074C507.569 16.498 507.803 15.664 507.803 14.572C507.803 13.504 507.569 12.682 507.101 12.106C506.633 11.518 505.973 11.224 505.121 11.224C504.269 11.224 503.609 11.518 503.141 12.106C502.673 12.682 502.439 13.504 502.439 14.572C502.439 15.652 502.667 16.48 503.123 17.056C503.591 17.632 504.257 17.92 505.121 17.92ZM516.437 11.278L515.483 11.368C514.583 11.452 513.929 11.734 513.521 12.214C513.125 12.694 512.927 13.288 512.927 13.996V19H511.469V10.234H512.891V11.764C513.383 10.744 514.349 10.174 515.789 10.054L516.311 10.018L516.437 11.278ZM524.983 14.842H518.575C518.623 15.862 518.899 16.636 519.403 17.164C519.907 17.68 520.621 17.938 521.545 17.938C522.565 17.938 523.501 17.59 524.353 16.894L524.839 17.956C524.455 18.316 523.963 18.604 523.363 18.82C522.763 19.024 522.151 19.126 521.527 19.126C520.159 19.126 519.079 18.724 518.287 17.92C517.507 17.116 517.117 16.006 517.117 14.59C517.117 13.69 517.291 12.898 517.639 12.214C517.987 11.518 518.473 10.978 519.097 10.594C519.733 10.21 520.453 10.018 521.257 10.018C522.421 10.018 523.333 10.402 523.993 11.17C524.653 11.926 524.983 12.97 524.983 14.302V14.842ZM521.275 11.152C520.507 11.152 519.889 11.392 519.421 11.872C518.965 12.352 518.695 13.03 518.611 13.906H523.705C523.681 13.018 523.459 12.34 523.039 11.872C522.619 11.392 522.031 11.152 521.275 11.152Z" fill="#264065"/>
<path d="M546 17C545.868 17.0008 545.738 16.9755 545.616 16.9258C545.494 16.876 545.383 16.8027 545.29 16.71L541.29 12.71C541.102 12.5217 540.996 12.2663 540.996 12C540.996 11.7337 541.102 11.4783 541.29 11.29C541.478 11.1017 541.734 10.9959 542 10.9959C542.266 10.9959 542.522 11.1017 542.71 11.29L546 14.59L549.29 11.3C549.481 11.1362 549.727 11.0506 549.979 11.0603C550.231 11.07 550.469 11.1743 550.648 11.3524C550.826 11.5305 550.93 11.7693 550.94 12.0209C550.949 12.2726 550.864 12.5187 550.7 12.71L546.7 16.71C546.514 16.8947 546.262 16.9989 546 17Z" fill="#264065"/>
</svg>
