<svg width="237" height="437" viewBox="0 0 237 437" fill="none" xmlns="http://www.w3.org/2000/svg">
<path d="M92.6237 210.026C94.0062 174.31 88.0059 138.692 74.9978 105.399C61.9898 72.1071 42.2539 41.8561 17.0238 16.5375L0.25 0L-16.5238 16.5375C-40.7688 40.5916 -59.982 69.2322 -73.0428 100.789C-86.1036 132.346 -92.7506 166.187 -92.5963 200.34C-92.5963 203.647 -92.5963 206.955 -92.5963 210.026C-128.796 188.342 -170.178 176.833 -212.375 176.715H-236V200.34C-236.001 258.908 -214.247 315.388 -174.959 358.823C-135.671 402.258 -81.6492 429.552 -23.375 435.409V436.59H23.875V435.409C82.1492 429.552 136.171 402.258 175.459 358.823C214.747 315.388 236.501 258.908 236.5 200.34V176.715H212.875C170.517 176.748 128.961 188.26 92.6237 210.026ZM0.25 68.7487C20.5287 94.5554 34.5578 124.706 41.2386 156.84C47.9195 188.974 47.0707 222.218 38.7588 253.969C23.2346 270.896 10.2618 289.997 0.25 310.669C-9.76181 289.997 -22.7345 270.896 -38.2588 253.969C-42.8773 236.464 -45.2587 218.444 -45.3463 200.34C-45.5183 152.573 -29.439 106.169 0.25 68.7487ZM-187.096 225.619C-146.059 231.148 -107.973 250.002 -78.6927 279.283C-49.4125 308.563 -30.5585 346.649 -25.0287 387.686C-66.0663 382.156 -104.152 363.302 -133.432 334.022C-162.712 304.742 -181.566 266.656 -187.096 225.619ZM25.5287 387.686C31.0586 346.649 49.9125 308.563 79.1927 279.283C108.473 250.002 146.559 231.148 187.596 225.619C182.066 266.656 163.212 304.742 133.932 334.022C104.652 363.302 66.5663 382.156 25.5287 387.686Z" fill="#264065"/>
</svg>
