<svg width="224" height="932" viewBox="0 0 224 932" fill="none" xmlns="http://www.w3.org/2000/svg">
<g opacity="0.05">
<mask id="path-1-outside-1_1126_21" maskUnits="userSpaceOnUse" x="-1.00004" y="-1.00001" width="226" height="934" fill="black">
<rect fill="white" x="-1.00004" y="-1.00001" width="226" height="934"/>
<path d="M3.99999 223.032L3.99999 144.696L16.672 144.696L26.176 168.312L77.152 147.864L77.152 72.984L26.176 52.536L16.672 75.576L4 75.576L4 0.119987L16.672 0.119988L26.176 23.736L207.328 94.584L207.328 124.248L26.176 197.976L16.672 223.032L3.99999 223.032ZM96.736 140.376L177.664 109.848L96.736 80.472L96.736 140.376ZM3.99999 305.146L3.99999 229.402L16.384 229.402L25.888 253.594L128.704 253.594L128.704 229.402L145.984 229.402C149.632 236.89 151.456 245.338 151.456 254.746C151.456 264.154 149.44 270.682 145.408 274.33C141.376 277.978 135.424 279.994 127.552 280.378C133.312 282.298 138.496 286.234 143.104 292.186C148.672 299.29 151.456 308.698 151.456 320.41C151.456 325.594 150.784 330.49 149.44 335.098C148.096 339.898 146.752 343.354 145.408 345.466L143.392 348.922L109.408 348.922L109.408 331.642L126.688 327.898C127.84 326.746 128.416 323.578 128.416 318.394C128.416 313.21 127.648 308.218 126.112 303.418C124.768 298.618 123.04 294.874 120.928 292.186C116.32 286.81 111.616 282.97 106.816 280.666L25.888 280.666L16.384 305.146L3.99999 305.146ZM67.072 408.7C50.56 408.7 39.328 411.196 33.376 416.188C27.424 421.18 24.448 428.764 24.448 438.94C24.448 449.116 25.984 457.468 29.056 463.996L14.656 469.756C13.696 468.988 12.448 467.836 10.912 466.3C9.37598 464.956 7.26398 461.404 4.57598 455.644C2.07998 449.884 0.83198 443.548 0.831981 436.636C0.831982 419.164 5.72798 405.628 15.52 396.028C25.504 386.428 40 381.628 59.008 381.628L125.248 381.628L125.248 366.364L142.24 366.364L169.888 394.012L169.888 408.7L148 408.7L148 457.084L125.248 457.084L125.248 408.7L67.072 408.7ZM3.99997 608.342L3.99998 485.942L23.584 485.942L124.672 574.07L124.672 510.422L107.968 504.95L107.968 488.534L147.424 488.534L147.424 604.31L124.672 604.31L27.616 520.502L27.616 587.894L44.896 593.366L44.896 608.342L3.99997 608.342ZM3.99997 710.159L3.99997 634.415L16.384 634.415L25.888 658.607L128.704 658.607L128.704 634.415L145.984 634.415C149.632 641.903 151.456 650.543 151.456 660.335C151.456 670.319 149.056 677.039 144.256 680.495C139.648 683.951 132.544 685.679 122.944 685.679L25.888 685.679L16.384 710.159L3.99997 710.159ZM184.576 686.831C180.16 682.415 177.952 677.039 177.952 670.703C177.952 664.367 180.16 658.991 184.576 654.575C188.992 650.159 194.368 647.951 200.704 647.951C207.04 647.951 212.416 650.159 216.832 654.575C221.248 658.991 223.456 664.367 223.456 670.703C223.456 677.039 221.248 682.415 216.832 686.831C212.416 691.247 207.04 693.455 200.704 693.455C194.368 693.455 188.992 691.247 184.576 686.831ZM1.11996 804.344C1.11997 782.648 7.26397 764.984 19.552 751.352C32.032 737.912 50.176 731.192 73.984 731.192C97.792 731.192 116.608 738.104 130.432 751.928C144.448 765.752 151.456 781.88 151.456 800.312C151.456 844.088 125.536 865.976 73.696 865.976L73.696 759.128L72.256 759.128C58.624 759.128 47.104 763.928 37.696 773.528C28.288 783.128 23.584 796.184 23.584 812.696C23.584 819.8 24.352 826.52 25.888 832.856C27.616 839.192 29.344 843.8 31.072 846.68L33.376 850.712L18.4 859.064C18.016 858.488 17.344 857.624 16.384 856.472C15.616 855.512 14.272 853.304 12.352 849.848C10.432 846.392 8.70396 842.648 7.16796 838.616C3.13596 828.44 1.11996 817.016 1.11996 804.344ZM92.128 839.192C104.032 838.232 113.056 834.296 119.2 827.384C125.536 820.664 128.704 811.832 128.704 800.888C128.704 790.136 125.632 781.208 119.488 774.104C113.536 767 104.416 762.392 92.128 760.28L92.128 839.192ZM5.72796 926.942C2.46396 923.678 0.83196 919.646 0.83196 914.846C0.83196 910.046 2.46396 906.014 5.72796 902.75C8.99196 899.486 13.024 897.854 17.824 897.854C22.624 897.854 26.656 899.486 29.92 902.75C33.184 906.014 34.816 910.046 34.816 914.846C34.816 919.646 33.184 923.678 29.92 926.942C26.656 930.206 22.624 931.838 17.824 931.838C13.024 931.838 8.99196 930.206 5.72796 926.942Z"/>
</mask>
<path d="M3.99999 223.032L3.99999 144.696L16.672 144.696L26.176 168.312L77.152 147.864L77.152 72.984L26.176 52.536L16.672 75.576L4 75.576L4 0.119987L16.672 0.119988L26.176 23.736L207.328 94.584L207.328 124.248L26.176 197.976L16.672 223.032L3.99999 223.032ZM96.736 140.376L177.664 109.848L96.736 80.472L96.736 140.376ZM3.99999 305.146L3.99999 229.402L16.384 229.402L25.888 253.594L128.704 253.594L128.704 229.402L145.984 229.402C149.632 236.89 151.456 245.338 151.456 254.746C151.456 264.154 149.44 270.682 145.408 274.33C141.376 277.978 135.424 279.994 127.552 280.378C133.312 282.298 138.496 286.234 143.104 292.186C148.672 299.29 151.456 308.698 151.456 320.41C151.456 325.594 150.784 330.49 149.44 335.098C148.096 339.898 146.752 343.354 145.408 345.466L143.392 348.922L109.408 348.922L109.408 331.642L126.688 327.898C127.84 326.746 128.416 323.578 128.416 318.394C128.416 313.21 127.648 308.218 126.112 303.418C124.768 298.618 123.04 294.874 120.928 292.186C116.32 286.81 111.616 282.97 106.816 280.666L25.888 280.666L16.384 305.146L3.99999 305.146ZM67.072 408.7C50.56 408.7 39.328 411.196 33.376 416.188C27.424 421.18 24.448 428.764 24.448 438.94C24.448 449.116 25.984 457.468 29.056 463.996L14.656 469.756C13.696 468.988 12.448 467.836 10.912 466.3C9.37598 464.956 7.26398 461.404 4.57598 455.644C2.07998 449.884 0.83198 443.548 0.831981 436.636C0.831982 419.164 5.72798 405.628 15.52 396.028C25.504 386.428 40 381.628 59.008 381.628L125.248 381.628L125.248 366.364L142.24 366.364L169.888 394.012L169.888 408.7L148 408.7L148 457.084L125.248 457.084L125.248 408.7L67.072 408.7ZM3.99997 608.342L3.99998 485.942L23.584 485.942L124.672 574.07L124.672 510.422L107.968 504.95L107.968 488.534L147.424 488.534L147.424 604.31L124.672 604.31L27.616 520.502L27.616 587.894L44.896 593.366L44.896 608.342L3.99997 608.342ZM3.99997 710.159L3.99997 634.415L16.384 634.415L25.888 658.607L128.704 658.607L128.704 634.415L145.984 634.415C149.632 641.903 151.456 650.543 151.456 660.335C151.456 670.319 149.056 677.039 144.256 680.495C139.648 683.951 132.544 685.679 122.944 685.679L25.888 685.679L16.384 710.159L3.99997 710.159ZM184.576 686.831C180.16 682.415 177.952 677.039 177.952 670.703C177.952 664.367 180.16 658.991 184.576 654.575C188.992 650.159 194.368 647.951 200.704 647.951C207.04 647.951 212.416 650.159 216.832 654.575C221.248 658.991 223.456 664.367 223.456 670.703C223.456 677.039 221.248 682.415 216.832 686.831C212.416 691.247 207.04 693.455 200.704 693.455C194.368 693.455 188.992 691.247 184.576 686.831ZM1.11996 804.344C1.11997 782.648 7.26397 764.984 19.552 751.352C32.032 737.912 50.176 731.192 73.984 731.192C97.792 731.192 116.608 738.104 130.432 751.928C144.448 765.752 151.456 781.88 151.456 800.312C151.456 844.088 125.536 865.976 73.696 865.976L73.696 759.128L72.256 759.128C58.624 759.128 47.104 763.928 37.696 773.528C28.288 783.128 23.584 796.184 23.584 812.696C23.584 819.8 24.352 826.52 25.888 832.856C27.616 839.192 29.344 843.8 31.072 846.68L33.376 850.712L18.4 859.064C18.016 858.488 17.344 857.624 16.384 856.472C15.616 855.512 14.272 853.304 12.352 849.848C10.432 846.392 8.70396 842.648 7.16796 838.616C3.13596 828.44 1.11996 817.016 1.11996 804.344ZM92.128 839.192C104.032 838.232 113.056 834.296 119.2 827.384C125.536 820.664 128.704 811.832 128.704 800.888C128.704 790.136 125.632 781.208 119.488 774.104C113.536 767 104.416 762.392 92.128 760.28L92.128 839.192ZM5.72796 926.942C2.46396 923.678 0.83196 919.646 0.83196 914.846C0.83196 910.046 2.46396 906.014 5.72796 902.75C8.99196 899.486 13.024 897.854 17.824 897.854C22.624 897.854 26.656 899.486 29.92 902.75C33.184 906.014 34.816 910.046 34.816 914.846C34.816 919.646 33.184 923.678 29.92 926.942C26.656 930.206 22.624 931.838 17.824 931.838C13.024 931.838 8.99196 930.206 5.72796 926.942Z" fill="#FF6666"/>
<path d="M3.99999 223.032L2.99999 223.032L2.99999 224.032L3.99999 224.032L3.99999 223.032ZM3.99999 144.696L3.99999 143.696L2.99999 143.696L2.99999 144.696L3.99999 144.696ZM16.672 144.696L17.5997 144.323L17.3475 143.696L16.672 143.696L16.672 144.696ZM26.176 168.312L25.2483 168.685L25.6212 169.612L26.5483 169.24L26.176 168.312ZM77.152 147.864L77.5243 148.792L78.152 148.54L78.152 147.864L77.152 147.864ZM77.152 72.984L78.152 72.984L78.152 72.3077L77.5243 72.0559L77.152 72.984ZM26.176 52.536L26.5483 51.6079L25.6292 51.2392L25.2516 52.1547L26.176 52.536ZM16.672 75.576L16.672 76.576L17.3412 76.576L17.5964 75.9573L16.672 75.576ZM4 75.576L3 75.576L3 76.576L4 76.576L4 75.576ZM4 0.119987L4 -0.880013L3 -0.880013L3 0.119987L4 0.119987ZM16.672 0.119988L17.5997 -0.253353L17.3475 -0.880012L16.672 -0.880012L16.672 0.119988ZM26.176 23.736L25.2483 24.1093L25.4095 24.51L25.8118 24.6673L26.176 23.736ZM207.328 94.584L208.328 94.584L208.328 93.9013L207.692 93.6527L207.328 94.584ZM207.328 124.248L207.705 125.174L208.328 124.921L208.328 124.248L207.328 124.248ZM26.176 197.976L25.799 197.05L25.3955 197.214L25.241 197.621L26.176 197.976ZM16.672 223.032L16.672 224.032L17.3622 224.032L17.607 223.387L16.672 223.032ZM96.736 140.376L95.736 140.376L95.736 141.822L97.0889 141.312L96.736 140.376ZM177.664 109.848L178.017 110.784L180.545 109.83L178.005 108.908L177.664 109.848ZM96.736 80.472L97.0772 79.532L95.736 79.0452L95.736 80.472L96.736 80.472ZM4.99999 223.032L4.99999 144.696L2.99999 144.696L2.99999 223.032L4.99999 223.032ZM3.99999 145.696L16.672 145.696L16.672 143.696L3.99999 143.696L3.99999 145.696ZM15.7443 145.069L25.2483 168.685L27.1037 167.939L17.5997 144.323L15.7443 145.069ZM26.5483 169.24L77.5243 148.792L76.7797 146.936L25.8037 167.384L26.5483 169.24ZM78.152 147.864L78.152 72.984L76.152 72.984L76.152 147.864L78.152 147.864ZM77.5243 72.0559L26.5483 51.6079L25.8037 53.4641L76.7797 73.9121L77.5243 72.0559ZM25.2516 52.1547L15.7476 75.1947L17.5964 75.9573L27.1004 52.9173L25.2516 52.1547ZM16.672 74.576L4 74.576L4 76.576L16.672 76.576L16.672 74.576ZM5 75.576L5 0.119987L3 0.119987L3 75.576L5 75.576ZM4 1.11999L16.672 1.11999L16.672 -0.880012L4 -0.880013L4 1.11999ZM15.7443 0.493328L25.2483 24.1093L27.1037 23.3626L17.5997 -0.253353L15.7443 0.493328ZM25.8118 24.6673L206.964 95.5153L207.692 93.6527L26.5402 22.8047L25.8118 24.6673ZM206.328 94.584L206.328 124.248L208.328 124.248L208.328 94.584L206.328 94.584ZM206.951 123.322L25.799 197.05L26.553 198.902L207.705 125.174L206.951 123.322ZM25.241 197.621L15.737 222.677L17.607 223.387L27.111 198.331L25.241 197.621ZM16.672 222.032L3.99999 222.032L3.99999 224.032L16.672 224.032L16.672 222.032ZM97.0889 141.312L178.017 110.784L177.311 108.912L96.3831 139.44L97.0889 141.312ZM178.005 108.908L97.0772 79.532L96.3948 81.412L177.323 110.788L178.005 108.908ZM95.736 80.472L95.736 140.376L97.736 140.376L97.736 80.472L95.736 80.472ZM3.99999 305.146L2.99999 305.146L2.99999 306.146L3.99999 306.146L3.99999 305.146ZM3.99999 229.402L3.99999 228.402L2.99999 228.402L2.99999 229.402L3.99999 229.402ZM16.384 229.402L17.3147 229.036L17.0655 228.402L16.384 228.402L16.384 229.402ZM25.888 253.594L24.9572 253.959L25.2064 254.594L25.888 254.594L25.888 253.594ZM128.704 253.594L128.704 254.594L129.704 254.594L129.704 253.594L128.704 253.594ZM128.704 229.402L128.704 228.402L127.704 228.402L127.704 229.402L128.704 229.402ZM145.984 229.402L146.883 228.964L146.609 228.402L145.984 228.402L145.984 229.402ZM145.408 274.33L146.079 275.071L146.079 275.071L145.408 274.33ZM127.552 280.378L127.503 279.379L127.236 281.326L127.552 280.378ZM143.104 292.186L142.313 292.798L142.317 292.803L143.104 292.186ZM149.44 335.098L148.48 334.818L148.477 334.828L149.44 335.098ZM145.408 345.466L144.564 344.929L144.554 344.945L144.544 344.962L145.408 345.466ZM143.392 348.922L143.392 349.922L143.966 349.922L144.256 349.426L143.392 348.922ZM109.408 348.922L108.408 348.922L108.408 349.922L109.408 349.922L109.408 348.922ZM109.408 331.642L109.196 330.664L108.408 330.835L108.408 331.642L109.408 331.642ZM126.688 327.898L126.9 328.875L127.187 328.813L127.395 328.605L126.688 327.898ZM126.112 303.418L125.149 303.687L125.154 303.705L125.16 303.723L126.112 303.418ZM120.928 292.186L121.714 291.568L121.701 291.551L121.687 291.535L120.928 292.186ZM106.816 280.666L107.249 279.764L107.044 279.666L106.816 279.666L106.816 280.666ZM25.888 280.666L25.888 279.666L25.2035 279.666L24.9558 280.304L25.888 280.666ZM16.384 305.146L16.384 306.146L17.0685 306.146L17.3162 305.508L16.384 305.146ZM4.99999 305.146L4.99999 229.402L2.99999 229.402L2.99999 305.146L4.99999 305.146ZM3.99999 230.402L16.384 230.402L16.384 228.402L3.99999 228.402L3.99999 230.402ZM15.4532 229.767L24.9572 253.959L26.8187 253.228L17.3147 229.036L15.4532 229.767ZM25.888 254.594L128.704 254.594L128.704 252.594L25.888 252.594L25.888 254.594ZM129.704 253.594L129.704 229.402L127.704 229.402L127.704 253.594L129.704 253.594ZM128.704 230.402L145.984 230.402L145.984 228.402L128.704 228.402L128.704 230.402ZM145.085 229.84C148.658 237.175 150.456 245.47 150.456 254.746L152.456 254.746C152.456 245.206 150.606 236.605 146.883 228.964L145.085 229.84ZM150.456 254.746C150.456 264.066 148.449 270.23 144.737 273.588L146.079 275.071C150.431 271.134 152.456 264.241 152.456 254.746L150.456 254.746ZM144.737 273.588C140.939 277.025 135.245 279.001 127.503 279.379L127.601 281.377C135.603 280.986 141.813 278.931 146.079 275.071L144.737 273.588ZM127.236 281.326C132.767 283.17 137.797 286.965 142.313 292.798L143.895 291.574C139.195 285.503 133.857 281.425 127.868 279.429L127.236 281.326ZM142.317 292.803C147.711 299.684 150.456 308.854 150.456 320.41L152.456 320.41C152.456 308.541 149.633 298.895 143.891 291.569L142.317 292.803ZM150.456 320.41C150.456 325.507 149.795 330.308 148.48 334.818L150.4 335.378C151.773 330.672 152.456 325.681 152.456 320.41L150.456 320.41ZM148.477 334.828C147.139 339.608 145.826 342.946 144.564 344.929L146.252 346.003C147.678 343.761 149.053 340.188 150.403 335.367L148.477 334.828ZM144.544 344.962L142.528 348.418L144.256 349.426L146.272 345.97L144.544 344.962ZM143.392 347.922L109.408 347.922L109.408 349.922L143.392 349.922L143.392 347.922ZM110.408 348.922L110.408 331.642L108.408 331.642L108.408 348.922L110.408 348.922ZM109.62 332.619L126.9 328.875L126.476 326.92L109.196 330.664L109.62 332.619ZM127.395 328.605C128.199 327.801 128.673 326.458 128.968 324.837C129.271 323.169 129.416 321.014 129.416 318.394L127.416 318.394C127.416 320.957 127.273 322.978 127 324.479C126.719 326.026 126.329 326.843 125.981 327.191L127.395 328.605ZM129.416 318.394C129.416 313.109 128.633 308.014 127.064 303.113L125.16 303.723C126.663 308.421 127.416 313.31 127.416 318.394L129.416 318.394ZM127.075 303.148C125.71 298.275 123.936 294.395 121.714 291.568L120.142 292.804C122.144 295.352 123.826 298.961 125.149 303.687L127.075 303.148ZM121.687 291.535C117.017 286.087 112.208 282.145 107.249 279.764L106.383 281.567C111.024 283.795 115.623 287.533 120.169 292.837L121.687 291.535ZM106.816 279.666L25.888 279.666L25.888 281.666L106.816 281.666L106.816 279.666ZM24.9558 280.304L15.4518 304.784L17.3162 305.508L26.8202 281.028L24.9558 280.304ZM16.384 304.146L3.99999 304.146L3.99999 306.146L16.384 306.146L16.384 304.146ZM33.376 416.188L34.0186 416.954L34.0186 416.954L33.376 416.188ZM29.056 463.996L29.4274 464.924L30.4126 464.53L29.9608 463.57L29.056 463.996ZM14.656 469.756L14.0313 470.537L14.4863 470.901L15.0274 470.684L14.656 469.756ZM10.912 466.3L11.6191 465.593L11.5955 465.569L11.5705 465.547L10.912 466.3ZM4.57598 455.644L3.65842 456.041L3.66394 456.054L3.6698 456.067L4.57598 455.644ZM15.52 396.028L14.8268 395.307L14.8199 395.314L15.52 396.028ZM125.248 381.628L125.248 382.628L126.248 382.628L126.248 381.628L125.248 381.628ZM125.248 366.364L125.248 365.364L124.248 365.364L124.248 366.364L125.248 366.364ZM142.24 366.364L142.947 365.657L142.654 365.364L142.24 365.364L142.24 366.364ZM169.888 394.012L170.888 394.012L170.888 393.598L170.595 393.305L169.888 394.012ZM169.888 408.7L169.888 409.7L170.888 409.7L170.888 408.7L169.888 408.7ZM148 408.7L148 407.7L147 407.7L147 408.7L148 408.7ZM148 457.084L148 458.084L149 458.084L149 457.084L148 457.084ZM125.248 457.084L124.248 457.084L124.248 458.084L125.248 458.084L125.248 457.084ZM125.248 408.7L126.248 408.7L126.248 407.7L125.248 407.7L125.248 408.7ZM67.072 407.7C58.7717 407.7 51.7577 408.327 46.0471 409.596C40.3439 410.863 35.8773 412.785 32.7334 415.422L34.0186 416.954C36.8267 414.599 40.9521 412.777 46.4809 411.548C52.0023 410.321 58.8603 409.7 67.072 409.7L67.072 407.7ZM32.7334 415.422C26.4891 420.659 23.448 428.566 23.448 438.94L25.448 438.94C25.448 428.961 28.3588 421.701 34.0186 416.954L32.7334 415.422ZM23.448 438.94C23.448 449.207 24.9962 457.717 28.1512 464.422L29.9608 463.57C26.9717 457.218 25.448 449.025 25.448 438.94L23.448 438.94ZM28.6846 463.067L14.2846 468.827L15.0274 470.684L29.4274 464.924L28.6846 463.067ZM15.2807 468.975C14.3633 468.241 13.1455 467.119 11.6191 465.593L10.2049 467.007C11.7505 468.552 13.0287 469.735 14.0313 470.537L15.2807 468.975ZM11.5705 465.547C10.9272 464.984 10.0811 463.875 9.03552 462.117C8.00298 460.38 6.8187 458.085 5.48216 455.221L3.6698 456.067C5.02126 458.963 6.23698 461.323 7.31644 463.139C8.38289 464.932 9.36073 466.271 10.2535 467.052L11.5705 465.547ZM5.49354 455.246C3.05719 449.624 1.83198 443.425 1.83198 436.636L-0.168019 436.636C-0.16802 443.671 1.10277 450.144 3.65842 456.041L5.49354 455.246ZM1.83198 436.636C1.83198 419.355 6.66896 406.106 16.2201 396.742L14.8199 395.314C4.787 405.15 -0.168018 418.973 -0.168019 436.636L1.83198 436.636ZM16.2131 396.749C25.9506 387.386 40.1606 382.628 59.008 382.628L59.008 380.628C39.8394 380.628 25.0574 385.47 14.8269 395.307L16.2131 396.749ZM59.008 382.628L125.248 382.628L125.248 380.628L59.008 380.628L59.008 382.628ZM126.248 381.628L126.248 366.364L124.248 366.364L124.248 381.628L126.248 381.628ZM125.248 367.364L142.24 367.364L142.24 365.364L125.248 365.364L125.248 367.364ZM141.533 367.071L169.181 394.719L170.595 393.305L142.947 365.657L141.533 367.071ZM168.888 394.012L168.888 408.7L170.888 408.7L170.888 394.012L168.888 394.012ZM169.888 407.7L148 407.7L148 409.7L169.888 409.7L169.888 407.7ZM147 408.7L147 457.084L149 457.084L149 408.7L147 408.7ZM148 456.084L125.248 456.084L125.248 458.084L148 458.084L148 456.084ZM126.248 457.084L126.248 408.7L124.248 408.7L124.248 457.084L126.248 457.084ZM125.248 407.7L67.072 407.7L67.072 409.7L125.248 409.7L125.248 407.7ZM3.99997 608.342L2.99997 608.342L2.99997 609.342L3.99997 609.342L3.99997 608.342ZM3.99998 485.942L3.99998 484.942L2.99998 484.942L2.99998 485.942L3.99998 485.942ZM23.584 485.942L24.2411 485.188L23.9587 484.942L23.584 484.942L23.584 485.942ZM124.672 574.07L124.015 574.824L125.672 576.269L125.672 574.07L124.672 574.07ZM124.672 510.422L125.672 510.422L125.672 509.698L124.983 509.472L124.672 510.422ZM107.968 504.95L106.968 504.95L106.968 505.675L107.657 505.901L107.968 504.95ZM107.968 488.534L107.968 487.534L106.968 487.534L106.968 488.534L107.968 488.534ZM147.424 488.534L148.424 488.534L148.424 487.534L147.424 487.534L147.424 488.534ZM147.424 604.31L147.424 605.31L148.424 605.31L148.424 604.31L147.424 604.31ZM124.672 604.31L124.018 605.067L124.3 605.31L124.672 605.31L124.672 604.31ZM27.616 520.502L28.2695 519.745L26.616 518.318L26.616 520.502L27.616 520.502ZM27.616 587.894L26.616 587.894L26.616 588.627L27.3141 588.848L27.616 587.894ZM44.896 593.366L45.896 593.366L45.896 592.634L45.1979 592.413L44.896 593.366ZM44.896 608.342L44.896 609.342L45.896 609.342L45.896 608.342L44.896 608.342ZM4.99997 608.342L4.99998 485.942L2.99998 485.942L2.99997 608.342L4.99997 608.342ZM3.99998 486.942L23.584 486.942L23.584 484.942L3.99998 484.942L3.99998 486.942ZM22.9268 486.696L124.015 574.824L125.329 573.316L24.2411 485.188L22.9268 486.696ZM125.672 574.07L125.672 510.422L123.672 510.422L123.672 574.07L125.672 574.07ZM124.983 509.472L108.279 504L107.657 505.901L124.361 511.373L124.983 509.472ZM108.968 504.95L108.968 488.534L106.968 488.534L106.968 504.95L108.968 504.95ZM107.968 489.534L147.424 489.534L147.424 487.534L107.968 487.534L107.968 489.534ZM146.424 488.534L146.424 604.31L148.424 604.31L148.424 488.534L146.424 488.534ZM147.424 603.31L124.672 603.31L124.672 605.31L147.424 605.31L147.424 603.31ZM125.326 603.553L28.2695 519.745L26.9624 521.259L124.018 605.067L125.326 603.553ZM26.616 520.502L26.616 587.894L28.616 587.894L28.616 520.502L26.616 520.502ZM27.3141 588.848L44.5941 594.32L45.1979 592.413L27.9179 586.941L27.3141 588.848ZM43.896 593.366L43.896 608.342L45.896 608.342L45.896 593.366L43.896 593.366ZM44.896 607.342L3.99997 607.342L3.99997 609.342L44.896 609.342L44.896 607.342ZM3.99997 710.159L2.99997 710.159L2.99997 711.159L3.99997 711.159L3.99997 710.159ZM3.99997 634.415L3.99997 633.415L2.99997 633.415L2.99997 634.415L3.99997 634.415ZM16.384 634.415L17.3147 634.05L17.0655 633.415L16.384 633.415L16.384 634.415ZM25.888 658.607L24.9572 658.973L25.2064 659.607L25.888 659.607L25.888 658.607ZM128.704 658.607L128.704 659.607L129.704 659.607L129.704 658.607L128.704 658.607ZM128.704 634.415L128.704 633.415L127.704 633.415L127.704 634.415L128.704 634.415ZM145.984 634.415L146.883 633.977L146.609 633.415L145.984 633.415L145.984 634.415ZM144.256 680.495L143.672 679.684L143.664 679.689L143.656 679.695L144.256 680.495ZM25.888 685.679L25.888 684.679L25.2035 684.679L24.9558 685.317L25.888 685.679ZM16.384 710.159L16.384 711.159L17.0685 711.159L17.3162 710.521L16.384 710.159ZM4.99997 710.159L4.99997 634.415L2.99997 634.415L2.99997 710.159L4.99997 710.159ZM3.99997 635.415L16.384 635.415L16.384 633.415L3.99997 633.415L3.99997 635.415ZM15.4532 634.781L24.9572 658.973L26.8187 658.242L17.3147 634.05L15.4532 634.781ZM25.888 659.607L128.704 659.607L128.704 657.607L25.888 657.607L25.888 659.607ZM129.704 658.607L129.704 634.415L127.704 634.415L127.704 658.607L129.704 658.607ZM128.704 635.415L145.984 635.415L145.984 633.415L128.704 633.415L128.704 635.415ZM145.085 634.853C148.656 642.183 150.456 650.669 150.456 660.335L152.456 660.335C152.456 650.418 150.608 641.624 146.883 633.977L145.085 634.853ZM150.456 660.335C150.456 670.217 148.073 676.515 143.672 679.684L144.84 681.307C150.039 677.564 152.456 670.421 152.456 660.335L150.456 660.335ZM143.656 679.695C139.303 682.96 132.459 684.679 122.944 684.679L122.944 686.679C132.629 686.679 139.993 684.942 144.856 681.295L143.656 679.695ZM122.944 684.679L25.888 684.679L25.888 686.679L122.944 686.679L122.944 684.679ZM24.9558 685.317L15.4518 709.797L17.3162 710.521L26.8202 686.041L24.9558 685.317ZM16.384 709.159L3.99997 709.159L3.99997 711.159L16.384 711.159L16.384 709.159ZM185.283 686.124C181.058 681.899 178.952 676.778 178.952 670.703L176.952 670.703C176.952 677.3 179.262 682.932 183.869 687.538L185.283 686.124ZM178.952 670.703C178.952 664.628 181.058 659.508 185.283 655.282L183.869 653.868C179.262 658.475 176.952 664.106 176.952 670.703L178.952 670.703ZM185.283 655.282C189.509 651.057 194.629 648.951 200.704 648.951L200.704 646.951C194.107 646.951 188.475 649.262 183.869 653.868L185.283 655.282ZM200.704 648.951C206.779 648.951 211.899 651.057 216.125 655.282L217.539 653.868C212.933 649.262 207.301 646.951 200.704 646.951L200.704 648.951ZM216.125 655.282C220.35 659.508 222.456 664.628 222.456 670.703L224.456 670.703C224.456 664.106 222.146 658.475 217.539 653.868L216.125 655.282ZM222.456 670.703C222.456 676.778 220.35 681.899 216.125 686.124L217.539 687.538C222.146 682.932 224.456 677.3 224.456 670.703L222.456 670.703ZM216.125 686.124C211.899 690.35 206.779 692.455 200.704 692.455L200.704 694.455C207.301 694.455 212.933 692.145 217.539 687.538L216.125 686.124ZM200.704 692.455C194.629 692.455 189.509 690.35 185.283 686.124L183.869 687.538C188.475 692.145 194.107 694.455 200.704 694.455L200.704 692.455ZM19.552 751.352L18.8192 750.672L18.8141 750.677L18.8092 750.683L19.552 751.352ZM130.432 751.928L129.725 752.635L129.73 752.64L130.432 751.928ZM73.696 865.976L72.696 865.976L72.696 866.976L73.696 866.976L73.696 865.976ZM73.696 759.128L74.696 759.128L74.696 758.128L73.696 758.128L73.696 759.128ZM37.696 773.528L36.9818 772.828L36.9818 772.828L37.696 773.528ZM25.888 832.856L24.9161 833.092L24.9195 833.106L24.9232 833.119L25.888 832.856ZM31.072 846.68L31.9402 846.184L31.9349 846.175L31.9295 846.166L31.072 846.68ZM33.376 850.712L33.863 851.586L34.7455 851.093L34.2442 850.216L33.376 850.712ZM18.4 859.064L17.5679 859.619L18.0803 860.388L18.887 859.938L18.4 859.064ZM16.384 856.472L15.6031 857.097L15.6093 857.105L15.6157 857.112L16.384 856.472ZM7.16796 838.616L8.10253 838.26L8.09765 838.248L7.16796 838.616ZM92.128 839.192L91.128 839.192L91.128 840.276L92.2084 840.189L92.128 839.192ZM119.2 827.384L118.472 826.698L118.462 826.709L118.453 826.72L119.2 827.384ZM119.488 774.104L118.721 774.746L118.726 774.752L118.732 774.758L119.488 774.104ZM92.128 760.28L92.2974 759.295L91.128 759.094L91.128 760.28L92.128 760.28ZM2.11996 804.344C2.11997 782.848 8.2017 765.437 20.2947 752.022L18.8092 750.683C6.32623 764.531 0.119966 782.449 0.119965 804.344L2.11996 804.344ZM20.2848 752.033C32.5233 738.853 50.3666 732.192 73.984 732.192L73.984 730.192C49.9854 730.192 31.5407 736.972 18.8192 750.672L20.2848 752.033ZM73.984 732.192C97.5883 732.192 116.128 739.038 129.725 752.635L131.139 751.221C117.088 737.17 97.9957 730.192 73.984 730.192L73.984 732.192ZM129.73 752.64C143.57 766.29 150.456 782.167 150.456 800.312L152.456 800.312C152.456 781.593 145.326 765.214 131.134 751.216L129.73 752.64ZM150.456 800.312C150.456 821.998 144.044 838.094 131.371 848.796C118.665 859.525 99.4992 864.976 73.696 864.976L73.696 866.976C99.7327 866.976 119.447 861.483 132.661 850.324C145.908 839.138 152.456 822.403 152.456 800.312L150.456 800.312ZM74.696 865.976L74.696 759.128L72.696 759.128L72.696 865.976L74.696 865.976ZM73.696 758.128L72.256 758.128L72.256 760.128L73.696 760.128L73.696 758.128ZM72.256 758.128C58.3595 758.128 46.5808 763.033 36.9818 772.828L38.4102 774.228C47.6271 764.823 58.8884 760.128 72.256 760.128L72.256 758.128ZM36.9818 772.828C27.3506 782.656 22.584 795.986 22.584 812.696L24.584 812.696C24.584 796.383 29.2254 783.6 38.4102 774.228L36.9818 772.828ZM22.584 812.696C22.584 819.873 23.3598 826.672 24.9161 833.092L26.8598 832.621C25.3441 826.368 24.584 819.728 24.584 812.696L22.584 812.696ZM24.9232 833.119C26.657 839.476 28.4135 844.193 30.2145 847.195L31.9295 846.166C30.2744 843.407 28.575 838.908 26.8527 832.593L24.9232 833.119ZM30.2037 847.176L32.5077 851.208L34.2442 850.216L31.9402 846.184L30.2037 847.176ZM32.8889 849.839L17.9129 858.191L18.887 859.938L33.863 851.586L32.8889 849.839ZM19.232 858.51C18.8164 857.886 18.1151 856.988 17.1522 855.832L15.6157 857.112C16.5729 858.261 17.2155 859.09 17.5679 859.619L19.232 858.51ZM17.1648 855.848C16.459 854.965 15.1552 852.835 13.2261 849.363L11.4778 850.334C13.3888 853.774 14.773 856.059 15.6031 857.097L17.1648 855.848ZM13.2261 849.363C11.3313 845.952 9.62298 842.252 8.10245 838.26L6.23348 838.972C7.78494 843.045 9.53264 846.833 11.4778 850.334L13.2261 849.363ZM8.09765 838.248C4.11883 828.206 2.11996 816.91 2.11996 804.344L0.119965 804.344C0.119964 817.123 2.1531 828.674 6.23828 838.985L8.09765 838.248ZM92.2084 840.189C104.292 839.215 113.587 835.205 119.947 828.049L118.453 826.72C112.525 833.388 103.772 837.25 92.0476 838.195L92.2084 840.189ZM119.928 828.07C126.47 821.131 129.704 812.037 129.704 800.888L127.704 800.888C127.704 811.627 124.602 820.197 118.472 826.698L119.928 828.07ZM129.704 800.888C129.704 789.933 126.568 780.762 120.244 773.45L118.732 774.758C124.696 781.655 127.704 790.34 127.704 800.888L129.704 800.888ZM120.254 773.462C114.105 766.122 104.738 761.433 92.2974 759.295L91.9586 761.266C104.094 763.352 112.967 767.878 118.721 774.746L120.254 773.462ZM91.128 760.28L91.128 839.192L93.128 839.192L93.128 760.28L91.128 760.28ZM5.72796 926.942L5.02085 927.649L5.02085 927.649L5.72796 926.942ZM5.72796 902.75L6.43507 903.457L6.43507 903.457L5.72796 902.75ZM29.92 902.75L29.2129 903.457L29.2129 903.457L29.92 902.75ZM29.92 926.942L29.2129 926.235L29.2129 926.235L29.92 926.942ZM6.43507 926.235C3.36678 923.167 1.83196 919.393 1.83196 914.846L-0.16804 914.846C-0.16804 919.9 1.56114 924.19 5.02085 927.649L6.43507 926.235ZM1.83196 914.846C1.83196 910.3 3.36678 906.526 6.43507 903.457L5.02085 902.043C1.56114 905.503 -0.16804 909.793 -0.16804 914.846L1.83196 914.846ZM6.43507 903.457C9.50335 900.389 13.2774 898.854 17.824 898.854L17.824 896.854C12.7705 896.854 8.48057 898.583 5.02085 902.043L6.43507 903.457ZM17.824 898.854C22.3705 898.854 26.1446 900.389 29.2129 903.457L30.6271 902.043C27.1674 898.583 22.8774 896.854 17.824 896.854L17.824 898.854ZM29.2129 903.457C32.2811 906.526 33.816 910.3 33.816 914.846L35.816 914.846C35.816 909.793 34.0868 905.503 30.6271 902.043L29.2129 903.457ZM33.816 914.846C33.816 919.393 32.2811 923.167 29.2129 926.235L30.6271 927.649C34.0868 924.19 35.816 919.9 35.816 914.846L33.816 914.846ZM29.2129 926.235C26.1446 929.303 22.3705 930.838 17.824 930.838L17.824 932.838C22.8774 932.838 27.1674 931.109 30.6271 927.649L29.2129 926.235ZM17.824 930.838C13.2774 930.838 9.50335 929.303 6.43507 926.235L5.02085 927.649C8.48057 931.109 12.7705 932.838 17.824 932.838L17.824 930.838Z" fill="#FF6666" mask="url(#path-1-outside-1_1126_21)"/>
</g>
</svg>
